<svg xmlns="http://www.w3.org/2000/svg" viewBox="0 0 24 24" width="24" height="24">
  <path fill="currentColor" d="M14.94 5.19A4.38 4.38 0 0 0 16 2a4.38 4.38 0 0 0-3 1.52 4.13 4.13 0 0 0-1 3.07 3.69 3.69 0 0 0 2.94-1.4zm2.52 7.44a4.51 4.51 0 0 1 2.16-3.81 4.66 4.66 0 0 0-3.66-2c-1.56-.16-3 .91-3.83.91s-2-.89-3.3-.87A4.92 4.92 0 0 0 4.69 9.4C2.93 12.6 4.24 17.33 6 19.85c.84 1.23 1.86 2.6 3.2 2.55s1.77-.82 3.31-.82 2 .82 3.3.79 2.22-1.23 3.06-2.46a11 11 0 0 0 1.38-2.85 4.41 4.41 0 0 1-2.79-4.43z"/>
</svg> 